<svg xmlns="http://www.w3.org/2000/svg"  xmlns:xlink="http://www.w3.org/1999/xlink" width="490" height="376">
	<g class="octave">
		<polygon class="piano-key white" points="0 0 0 376 70 376 70 270 55 270 55 0 0 0"></polygon>
		<polygon class="piano-key black"  points="55 0 55 270 85 270 85 0 55 0"></polygon>
		<polygon class="piano-key white" points="85 0 85 270 70 270 70 376 140 376 140 270 125 270 125 140 125 0 85 0"></polygon>
		<polygon class="piano-key black"points="125 0 125 270 155 270 155 0 125 0"></polygon>
		<polygon class="piano-key white" points="155 0 155 270 140 270 140 376 210 376 210 0 155 0"></polygon>
		<polygon class="piano-key white" points="210 140 210 376 280 376 280 270 265 270 265 0 210 0"></polygon>
		<polygon class="piano-key black" points="265 0 265 270 295 270 295 0 265 0"></polygon>
		<polygon class="piano-key white" points="295 0 295 270 280 270 280 376 350 376 350 270 335 270 335 0 295 0"></polygon>
		<polygon class="piano-key black" points="335 0 335 270 365 270 365 0 335 0"></polygon>
		<polygon class="piano-key white" points="365 0 365 270 350 270 350 376 420 376 420 270 405 270 405 0 365 0"></polygon>
		<polygon class="piano-key black" points="405 0 405 270 435 270 435 0 405 0"></polygon>
		<polygon class="piano-key white" points="435 0 435 270 420 270 420 376 490 376 490 0 435 0"></polygon>
	</g>
</svg>