<svg class="piano" xmlns="http://www.w3.org/2000/svg"  xmlns:xlink="http://www.w3.org/1999/xlink" width="980" height="516" viewBox="1470 0 980 516">
   <g class="octave" data-oct="-2" transform="translate(0,140)">
     <g class="piano-key" data-tone="1">
       <polygon class="base" points="0 0 0 376 70 376 70 270 55 270 55 0 0 0"></polygon>
       <text x="35" y="350"></text>
     </g>
     <g class="piano-key" data-tone="2" transform="translate(55,0)">
       <polygon class="adjacent" points="0 0 0 270 30 270 30 0 0 0"></polygon>
       <text x="15" y="250"></text>
     </g>
     <g class="piano-key" data-tone="3" transform="translate(70,0)">
       <polygon class="base" points="15 0 15 270 0 270 0 376 70 376 70 270 55 270 55 140 55 0 15 0"></polygon>
       <text x="35" y="350"></text>
     </g>
     <g class="piano-key" data-tone="4" transform="translate(125,0)">
       <polygon class="adjacent" points="0 0 0 270 30 270 30 0 0 0"></polygon>
       <text x="15" y="250"></text>
     </g>
     <g class="piano-key" data-tone="5" transform="translate(140,0)">
       <polygon class="base" points="15 0 15 270 0 270 0 376 70 376 70 0 15 0"></polygon>
       <text x="35" y="350"></text>
     </g>
     <g class="piano-key" data-tone="6" transform="translate(210,0)">
       <polygon class="base" points="0 0 0 376 70 376 70 270 55 270 55 0 0 0"></polygon>
       <text x="35" y="350"></text>
     </g>
     <g class="piano-key" data-tone="7" transform="translate(265,0)">
       <polygon class="adjacent" points="0 0 0 270 30 270 30 0 0 0"></polygon>
       <text x="15" y="250"></text>
     </g>
     <g class="piano-key" data-tone="8" transform="translate(280,0)">
       <polygon class="base" points="15 0 15 270 0 270 0 376 70 376 70 270 55 270 55 140 55 0 15 0"></polygon>
       <text x="35" y="350"></text>
     </g>
     <g class="piano-key" data-tone="9" transform="translate(335,0)">
       <polygon class="adjacent" points="0 0 0 270 30 270 30 0 0 0"></polygon>
       <text x="15" y="250"></text>
     </g>
     <g class="piano-key" data-tone="10" transform="translate(350,0)">
       <polygon class="base" points="15 0 15 270 0 270 0 376 70 376 70 270 55 270 55 140 55 0 15 0"></polygon>
       <text x="35" y="350"></text>
     </g>
     <g class="piano-key" data-tone="11" transform="translate(405,0)">
       <polygon class="adjacent" points="0 0 0 270 30 270 30 0 0 0"></polygon>
       <text x="15" y="250"></text>
     </g>
     <g class="piano-key" data-tone="12" transform="translate(420,0)">
       <polygon class="base" points="15 0 15 270 0 270 0 376 70 376 70 0 15 0"></polygon>
       <text x="35" y="350"></text>
     </g>

   </g>
   <g class="octave" data-oct="-1" transform="translate(490,140)">
     <g class="piano-key" data-tone="1">
       <polygon class="base" points="0 0 0 376 70 376 70 270 55 270 55 0 0 0"></polygon>
       <text x="35" y="350"></text>
     </g>
     <g class="piano-key" data-tone="2" transform="translate(55,0)">
       <polygon class="adjacent" points="0 0 0 270 30 270 30 0 0 0"></polygon>
       <text x="15" y="250"></text>
     </g>
     <g class="piano-key" data-tone="3" transform="translate(70,0)">
       <polygon class="base" points="15 0 15 270 0 270 0 376 70 376 70 270 55 270 55 140 55 0 15 0"></polygon>
       <text x="35" y="350"></text>
     </g>
     <g class="piano-key" data-tone="4" transform="translate(125,0)">
       <polygon class="adjacent" points="0 0 0 270 30 270 30 0 0 0"></polygon>
       <text x="15" y="250"></text>
     </g>
     <g class="piano-key" data-tone="5" transform="translate(140,0)">
       <polygon class="base" points="15 0 15 270 0 270 0 376 70 376 70 0 15 0"></polygon>
       <text x="35" y="350"></text>
     </g>
     <g class="piano-key" data-tone="6" transform="translate(210,0)">
       <polygon class="base" points="0 0 0 376 70 376 70 270 55 270 55 0 0 0"></polygon>
       <text x="35" y="350"></text>
     </g>
     <g class="piano-key" data-tone="7" transform="translate(265,0)">
       <polygon class="adjacent" points="0 0 0 270 30 270 30 0 0 0"></polygon>
       <text x="15" y="250"></text>
     </g>
     <g class="piano-key" data-tone="8" transform="translate(280,0)">
       <polygon class="base" points="15 0 15 270 0 270 0 376 70 376 70 270 55 270 55 140 55 0 15 0"></polygon>
       <text x="35" y="350"></text>
     </g>
     <g class="piano-key" data-tone="9" transform="translate(335,0)">
       <polygon class="adjacent" points="0 0 0 270 30 270 30 0 0 0"></polygon>
       <text x="15" y="250"></text>
     </g>
     <g class="piano-key" data-tone="10" transform="translate(350,0)">
       <polygon class="base" points="15 0 15 270 0 270 0 376 70 376 70 270 55 270 55 140 55 0 15 0"></polygon>
       <text x="35" y="350"></text>
     </g>
     <g class="piano-key" data-tone="11" transform="translate(405,0)">
       <polygon class="adjacent" points="0 0 0 270 30 270 30 0 0 0"></polygon>
       <text x="15" y="250"></text>
     </g>
     <g class="piano-key" data-tone="12" transform="translate(420,0)">
       <polygon class="base" points="15 0 15 270 0 270 0 376 70 376 70 0 15 0"></polygon>
       <text x="35" y="350"></text>
     </g>

   </g>
   <g class="octave" data-oct="0" transform="translate(980,140)">
     <g class="piano-key" data-tone="1">
       <polygon class="base" points="0 0 0 376 70 376 70 270 55 270 55 0 0 0"></polygon>
       <text x="35" y="350"></text>
     </g>
     <g class="piano-key" data-tone="2" transform="translate(55,0)">
       <polygon class="adjacent" points="0 0 0 270 30 270 30 0 0 0"></polygon>
       <text x="15" y="250"></text>
     </g>
     <g class="piano-key" data-tone="3" transform="translate(70,0)">
       <polygon class="base" points="15 0 15 270 0 270 0 376 70 376 70 270 55 270 55 140 55 0 15 0"></polygon>
       <text x="35" y="350"></text>
     </g>
     <g class="piano-key" data-tone="4" transform="translate(125,0)">
       <polygon class="adjacent" points="0 0 0 270 30 270 30 0 0 0"></polygon>
       <text x="15" y="250"></text>
     </g>
     <g class="piano-key" data-tone="5" transform="translate(140,0)">
       <polygon class="base" points="15 0 15 270 0 270 0 376 70 376 70 0 15 0"></polygon>
       <text x="35" y="350"></text>
     </g>
     <g class="piano-key" data-tone="6" transform="translate(210,0)">
       <polygon class="base" points="0 0 0 376 70 376 70 270 55 270 55 0 0 0"></polygon>
       <text x="35" y="350"></text>
     </g>
     <g class="piano-key" data-tone="7" transform="translate(265,0)">
       <polygon class="adjacent" points="0 0 0 270 30 270 30 0 0 0"></polygon>
       <text x="15" y="250"></text>
     </g>
     <g class="piano-key" data-tone="8" transform="translate(280,0)">
       <polygon class="base" points="15 0 15 270 0 270 0 376 70 376 70 270 55 270 55 140 55 0 15 0"></polygon>
       <text x="35" y="350"></text>
     </g>
     <g class="piano-key" data-tone="9" transform="translate(335,0)">
       <polygon class="adjacent" points="0 0 0 270 30 270 30 0 0 0"></polygon>
       <text x="15" y="250"></text>
     </g>
     <g class="piano-key" data-tone="10" transform="translate(350,0)">
       <polygon class="base" points="15 0 15 270 0 270 0 376 70 376 70 270 55 270 55 140 55 0 15 0"></polygon>
       <text x="35" y="350"></text>
     </g>
     <g class="piano-key" data-tone="11" transform="translate(405,0)">
       <polygon class="adjacent" points="0 0 0 270 30 270 30 0 0 0"></polygon>
       <text x="15" y="250"></text>
     </g>
     <g class="piano-key" data-tone="12" transform="translate(420,0)">
       <polygon class="base" points="15 0 15 270 0 270 0 376 70 376 70 0 15 0"></polygon>
       <text x="35" y="350"></text>
     </g>

   </g>
   <g class="octave" data-oct="1" transform="translate(1470,140)">
     <g class="piano-key" data-tone="1">
       <polygon class="base" points="0 0 0 376 70 376 70 270 55 270 55 0 0 0"></polygon>
       <text x="35" y="350"></text>
     </g>
     <g class="piano-key" data-tone="2" transform="translate(55,0)">
       <polygon class="adjacent" points="0 0 0 270 30 270 30 0 0 0"></polygon>
       <text x="15" y="250"></text>
     </g>
     <g class="piano-key" data-tone="3" transform="translate(70,0)">
       <polygon class="base" points="15 0 15 270 0 270 0 376 70 376 70 270 55 270 55 140 55 0 15 0"></polygon>
       <text x="35" y="350"></text>
     </g>
     <g class="piano-key" data-tone="4" transform="translate(125,0)">
       <polygon class="adjacent" points="0 0 0 270 30 270 30 0 0 0"></polygon>
       <text x="15" y="250"></text>
     </g>
     <g class="piano-key" data-tone="5" transform="translate(140,0)">
       <polygon class="base" points="15 0 15 270 0 270 0 376 70 376 70 0 15 0"></polygon>
       <text x="35" y="350"></text>
     </g>
     <g class="piano-key" data-tone="6" transform="translate(210,0)">
       <polygon class="base" points="0 0 0 376 70 376 70 270 55 270 55 0 0 0"></polygon>
       <text x="35" y="350"></text>
     </g>
     <g class="piano-key" data-tone="7" transform="translate(265,0)">
       <polygon class="adjacent" points="0 0 0 270 30 270 30 0 0 0"></polygon>
       <text x="15" y="250"></text>
     </g>
     <g class="piano-key" data-tone="8" transform="translate(280,0)">
       <polygon class="base" points="15 0 15 270 0 270 0 376 70 376 70 270 55 270 55 140 55 0 15 0"></polygon>
       <text x="35" y="350"></text>
     </g>
     <g class="piano-key" data-tone="9" transform="translate(335,0)">
       <polygon class="adjacent" points="0 0 0 270 30 270 30 0 0 0"></polygon>
       <text x="15" y="250"></text>
     </g>
     <g class="piano-key" data-tone="10" transform="translate(350,0)">
       <polygon class="base" points="15 0 15 270 0 270 0 376 70 376 70 270 55 270 55 140 55 0 15 0"></polygon>
       <text x="35" y="350"></text>
     </g>
     <g class="piano-key" data-tone="11" transform="translate(405,0)">
       <polygon class="adjacent" points="0 0 0 270 30 270 30 0 0 0"></polygon>
       <text x="15" y="250"></text>
     </g>
     <g class="piano-key" data-tone="12" transform="translate(420,0)">
       <polygon class="base" points="15 0 15 270 0 270 0 376 70 376 70 0 15 0"></polygon>
       <text x="35" y="350"></text>
     </g>

   </g>
   <g class="octave" data-oct="2" transform="translate(1960,140)">
     <g class="piano-key" data-tone="1">
       <polygon class="base" points="0 0 0 376 70 376 70 270 55 270 55 0 0 0"></polygon>
       <text x="35" y="350"></text>
     </g>
     <g class="piano-key" data-tone="2" transform="translate(55,0)">
       <polygon class="adjacent" points="0 0 0 270 30 270 30 0 0 0"></polygon>
       <text x="15" y="250"></text>
     </g>
     <g class="piano-key" data-tone="3" transform="translate(70,0)">
       <polygon class="base" points="15 0 15 270 0 270 0 376 70 376 70 270 55 270 55 140 55 0 15 0"></polygon>
       <text x="35" y="350"></text>
     </g>
     <g class="piano-key" data-tone="4" transform="translate(125,0)">
       <polygon class="adjacent" points="0 0 0 270 30 270 30 0 0 0"></polygon>
       <text x="15" y="250"></text>
     </g>
     <g class="piano-key" data-tone="5" transform="translate(140,0)">
       <polygon class="base" points="15 0 15 270 0 270 0 376 70 376 70 0 15 0"></polygon>
       <text x="35" y="350"></text>
     </g>
     <g class="piano-key" data-tone="6" transform="translate(210,0)">
       <polygon class="base" points="0 0 0 376 70 376 70 270 55 270 55 0 0 0"></polygon>
       <text x="35" y="350"></text>
     </g>
     <g class="piano-key" data-tone="7" transform="translate(265,0)">
       <polygon class="adjacent" points="0 0 0 270 30 270 30 0 0 0"></polygon>
       <text x="15" y="250"></text>
     </g>
     <g class="piano-key" data-tone="8" transform="translate(280,0)">
       <polygon class="base" points="15 0 15 270 0 270 0 376 70 376 70 270 55 270 55 140 55 0 15 0"></polygon>
       <text x="35" y="350"></text>
     </g>
     <g class="piano-key" data-tone="9" transform="translate(335,0)">
       <polygon class="adjacent" points="0 0 0 270 30 270 30 0 0 0"></polygon>
       <text x="15" y="250"></text>
     </g>
     <g class="piano-key" data-tone="10" transform="translate(350,0)">
       <polygon class="base" points="15 0 15 270 0 270 0 376 70 376 70 270 55 270 55 140 55 0 15 0"></polygon>
       <text x="35" y="350"></text>
     </g>
     <g class="piano-key" data-tone="11" transform="translate(405,0)">
       <polygon class="adjacent" points="0 0 0 270 30 270 30 0 0 0"></polygon>
       <text x="15" y="250"></text>
     </g>
     <g class="piano-key" data-tone="12" transform="translate(420,0)">
       <polygon class="base" points="15 0 15 270 0 270 0 376 70 376 70 0 15 0"></polygon>
       <text x="35" y="350"></text>
     </g>

   </g>
   <g class="octave" data-oct="3" transform="translate(2450,140)">
     <g class="piano-key" data-tone="1">
       <polygon class="base" points="0 0 0 376 70 376 70 270 55 270 55 0 0 0"></polygon>
       <text x="35" y="350"></text>
     </g>
     <g class="piano-key" data-tone="2" transform="translate(55,0)">
       <polygon class="adjacent" points="0 0 0 270 30 270 30 0 0 0"></polygon>
       <text x="15" y="250"></text>
     </g>
     <g class="piano-key" data-tone="3" transform="translate(70,0)">
       <polygon class="base" points="15 0 15 270 0 270 0 376 70 376 70 270 55 270 55 140 55 0 15 0"></polygon>
       <text x="35" y="350"></text>
     </g>
     <g class="piano-key" data-tone="4" transform="translate(125,0)">
       <polygon class="adjacent" points="0 0 0 270 30 270 30 0 0 0"></polygon>
       <text x="15" y="250"></text>
     </g>
     <g class="piano-key" data-tone="5" transform="translate(140,0)">
       <polygon class="base" points="15 0 15 270 0 270 0 376 70 376 70 0 15 0"></polygon>
       <text x="35" y="350"></text>
     </g>
     <g class="piano-key" data-tone="6" transform="translate(210,0)">
       <polygon class="base" points="0 0 0 376 70 376 70 270 55 270 55 0 0 0"></polygon>
       <text x="35" y="350"></text>
     </g>
     <g class="piano-key" data-tone="7" transform="translate(265,0)">
       <polygon class="adjacent" points="0 0 0 270 30 270 30 0 0 0"></polygon>
       <text x="15" y="250"></text>
     </g>
     <g class="piano-key" data-tone="8" transform="translate(280,0)">
       <polygon class="base" points="15 0 15 270 0 270 0 376 70 376 70 270 55 270 55 140 55 0 15 0"></polygon>
       <text x="35" y="350"></text>
     </g>
     <g class="piano-key" data-tone="9" transform="translate(335,0)">
       <polygon class="adjacent" points="0 0 0 270 30 270 30 0 0 0"></polygon>
       <text x="15" y="250"></text>
     </g>
     <g class="piano-key" data-tone="10" transform="translate(350,0)">
       <polygon class="base" points="15 0 15 270 0 270 0 376 70 376 70 270 55 270 55 140 55 0 15 0"></polygon>
       <text x="35" y="350"></text>
     </g>
     <g class="piano-key" data-tone="11" transform="translate(405,0)">
       <polygon class="adjacent" points="0 0 0 270 30 270 30 0 0 0"></polygon>
       <text x="15" y="250"></text>
     </g>
     <g class="piano-key" data-tone="12" transform="translate(420,0)">
       <polygon class="base" points="15 0 15 270 0 270 0 376 70 376 70 0 15 0"></polygon>
       <text x="35" y="350"></text>
     </g>

   </g>
   <g class="octave" data-oct="4" transform="translate(2940,140)">
     <g class="piano-key" data-tone="1">
       <polygon class="base" points="0 0 0 376 70 376 70 270 55 270 55 0 0 0"></polygon>
       <text x="35" y="350"></text>
     </g>
     <g class="piano-key" data-tone="2" transform="translate(55,0)">
       <polygon class="adjacent" points="0 0 0 270 30 270 30 0 0 0"></polygon>
       <text x="15" y="250"></text>
     </g>
     <g class="piano-key" data-tone="3" transform="translate(70,0)">
       <polygon class="base" points="15 0 15 270 0 270 0 376 70 376 70 270 55 270 55 140 55 0 15 0"></polygon>
       <text x="35" y="350"></text>
     </g>
     <g class="piano-key" data-tone="4" transform="translate(125,0)">
       <polygon class="adjacent" points="0 0 0 270 30 270 30 0 0 0"></polygon>
       <text x="15" y="250"></text>
     </g>
     <g class="piano-key" data-tone="5" transform="translate(140,0)">
       <polygon class="base" points="15 0 15 270 0 270 0 376 70 376 70 0 15 0"></polygon>
       <text x="35" y="350"></text>
     </g>
     <g class="piano-key" data-tone="6" transform="translate(210,0)">
       <polygon class="base" points="0 0 0 376 70 376 70 270 55 270 55 0 0 0"></polygon>
       <text x="35" y="350"></text>
     </g>
     <g class="piano-key" data-tone="7" transform="translate(265,0)">
       <polygon class="adjacent" points="0 0 0 270 30 270 30 0 0 0"></polygon>
       <text x="15" y="250"></text>
     </g>
     <g class="piano-key" data-tone="8" transform="translate(280,0)">
       <polygon class="base" points="15 0 15 270 0 270 0 376 70 376 70 270 55 270 55 140 55 0 15 0"></polygon>
       <text x="35" y="350"></text>
     </g>
     <g class="piano-key" data-tone="9" transform="translate(335,0)">
       <polygon class="adjacent" points="0 0 0 270 30 270 30 0 0 0"></polygon>
       <text x="15" y="250"></text>
     </g>
     <g class="piano-key" data-tone="10" transform="translate(350,0)">
       <polygon class="base" points="15 0 15 270 0 270 0 376 70 376 70 270 55 270 55 140 55 0 15 0"></polygon>
       <text x="35" y="350"></text>
     </g>
     <g class="piano-key" data-tone="11" transform="translate(405,0)">
       <polygon class="adjacent" points="0 0 0 270 30 270 30 0 0 0"></polygon>
       <text x="15" y="250"></text>
     </g>
     <g class="piano-key" data-tone="12" transform="translate(420,0)">
       <polygon class="base" points="15 0 15 270 0 270 0 376 70 376 70 0 15 0"></polygon>
       <text x="35" y="350"></text>
     </g>

   </g>

 </svg>
